# xmcd
# 
# Track frame offsets:
#     150
#     16662
#     31579
#     44009
#     59237
#     78009
#     92932
#     110896
#     130657
#     146486
# 
# Disc length: 2161
# 
# Revision: 0
# Processed by: cddbd v1.5.2PL0 Copyright (c) Steve Scherf et al.
# Submitted via: fre:ac v1.0.27
# 
DISCID=82086f0a
DTITLE=9㎜ Parabellum Bullet - BABEL
DYEAR=2017
DGENRE=Alternative
TTITLE0=ロング・グッドバイ
TTITLE1=Story of Glory
TTITLE2=I.C.R.A
TTITLE3=ガラスの街のアリス
TTITLE4=眠り姫
TTITLE5=火の鳥
TTITLE6=Everyone is fighting on this stage of lonely
TTITLE7=バベルのこどもたち
TTITLE8=ホワイトアウト
TTITLE9=それから
EXTD=
EXTT0=
EXTT1=
EXTT2=
EXTT3=
EXTT4=
EXTT5=
EXTT6=
EXTT7=
EXTT8=
EXTT9=
PLAYORDER=
